<svg width="34" height="35" viewBox="0 0 34 35" fill="none" xmlns="http://www.w3.org/2000/svg">
<path d="M12.75 30.0752V21.5752C12.75 20.8237 13.0485 20.1031 13.5799 19.5717C14.1112 19.0404 14.8319 18.7419 15.5833 18.7419H18.4167C19.1681 18.7419 19.8888 19.0404 20.4201 19.5717C20.9515 20.1031 21.25 20.8237 21.25 21.5752V30.0752M7.08333 17.3252H4.25L17 4.5752L29.75 17.3252H26.9167V27.2419C26.9167 27.9933 26.6182 28.714 26.0868 29.2453C25.5554 29.7767 24.8348 30.0752 24.0833 30.0752H9.91667C9.16522 30.0752 8.44455 29.7767 7.9132 29.2453C7.38184 28.714 7.08333 27.9933 7.08333 27.2419V17.3252Z" stroke="#61788F" stroke-width="2.5" stroke-linecap="round" stroke-linejoin="round"/>
</svg>
